<svg width="8" height="8" viewBox="0 0 8 8" fill="none" xmlns="http://www.w3.org/2000/svg">
<path d="M4.70751 4.00008L7.85341 0.854052C8.04886 0.658759 8.04886 0.341887 7.85341 0.146595C7.65796 -0.0488649 7.34144 -0.0488649 7.14598 0.146595L4.00008 3.29263L0.854016 0.146595C0.658565 -0.0488649 0.34204 -0.0488649 0.146589 0.146595C-0.0488629 0.341887 -0.0488629 0.658759 0.146589 0.854052L3.29266 4.00008L0.146589 7.14611C-0.0488629 7.34141 -0.0488629 7.65828 0.146589 7.85357C0.244314 7.95113 0.372392 8 0.500302 8C0.628213 8 0.75629 7.95113 0.854016 7.8534L4.00008 4.70737L7.14598 7.8534C7.24371 7.95113 7.37179 8 7.4997 8C7.62761 8 7.75569 7.95113 7.85341 7.8534C8.04886 7.65811 8.04886 7.34124 7.85341 7.14595L4.70751 4.00008Z" fill="#828282"/>
</svg>
