<svg width="12" height="9" viewBox="0 0 12 9" fill="none" xmlns="http://www.w3.org/2000/svg">
<path d="M0.138462 4.95C0.0461539 4.86 0 4.725 0 4.635C0 4.545 0.0461539 4.41 0.138462 4.32L0.784615 3.69C0.969231 3.51 1.24615 3.51 1.43077 3.69L1.47692 3.735L4.01538 6.39C4.10769 6.48 4.24615 6.48 4.33846 6.39L10.5231 0.135H10.5692C10.7538 -0.045 11.0308 -0.045 11.2154 0.135L11.8615 0.765C12.0462 0.945 12.0462 1.215 11.8615 1.395L4.47692 8.865C4.38462 8.955 4.29231 9 4.15385 9C4.01538 9 3.92308 8.955 3.83077 8.865L0.230769 5.085L0.138462 4.95Z" fill="#7459FE"/>
</svg>
