<?xml-stylesheet type="text/css" href="../../style.css"?>
<svg width="16" height="15" viewBox="0 0 16 15" version="1.1" xmlns="http://www.w3.org/2000/svg" xmlns:xlink="http://www.w3.org/1999/xlink">
<g id="Canvas" fill="none">
<g id="Group">
<g id="Vector">
<path class="fa" class="fa" d="M 14.4912 3.73528C 13.7967 2.58626 12.8547 1.67652 11.6649 1.00586C 10.4748 0.335242 9.17568 0 7.76652 0C 6.3575 0 5.058 0.335242 3.86815 1.00586C 2.67824 1.67642 1.73619 2.58616 1.04168 3.73528C 0.347146 4.88446 0 6.1394 0 7.5C 0 8.86067 0.347252 10.1154 1.04158 11.2647C 1.73605 12.4137 2.6781 13.3234 3.86801 13.9941C 5.058 14.6647 6.35739 15 7.76638 15C 9.17536 15 10.4749 14.6647 11.6648 13.9941C 12.8547 13.3237 13.7967 12.4137 14.4911 11.2647C 15.1854 10.1155 15.5325 8.8606 15.5325 7.5C 15.5326 6.13926 15.1854 4.88428 14.4912 3.73528ZM 12.8022 6.35742L 7.31127 11.6601C 7.18316 11.7839 7.0282 11.8457 6.84608 11.8457C 6.67082 11.8457 6.51919 11.7839 6.39104 11.6601L 2.73023 8.12499C 2.60903 8.0077 2.54828 7.86151 2.54828 7.68556C 2.54828 7.50332 2.60882 7.35347 2.73023 7.23625L 3.65047 6.35742C 3.77872 6.23374 3.93021 6.17189 4.10561 6.17189C 4.281 6.17189 4.4327 6.23377 4.56074 6.35742L 6.84618 8.56442L 10.972 4.58985C 11.1001 4.46613 11.2518 4.40425 11.427 4.40425C 11.6022 4.40425 11.7541 4.46613 11.8821 4.58985L 12.8023 5.46881C 12.9239 5.58593 12.9844 5.73564 12.9844 5.91789C 12.9844 6.09374 12.9239 6.24023 12.8022 6.35742Z" fill="url(#paint0_linear)"/>
</g>
</g>
</g>
<defs>

<linearGradient id="paint0_linear" x2="1" gradientUnits="userSpaceOnUse" gradientTransform="matrix(0 15 -15.5325 0 15.5325 0)">
<stop stop-color="#67C5D6"/>
<stop offset="1" stop-color="#66B3F1"/>
</linearGradient>

</defs>
</svg>

