<svg width="15" height="14" viewBox="0 0 15 14" fill="none" xmlns="http://www.w3.org/2000/svg">
<path d="M4.3441 0C2.82152 0 1.36683 0.460176 0.137334 1.33074C-0.00352411 1.43046 -0.0418068 1.61927 0.0495062 1.7639L1.2042 3.59238C1.25279 3.66923 1.33198 3.72296 1.42279 3.74046C1.51349 3.75792 1.60769 3.7378 1.68264 3.68481C2.40132 3.17593 3.25178 2.90692 4.14213 2.90692C6.4544 2.90692 8.33556 4.74304 8.33556 6.99995C8.33556 9.25686 6.4544 11.093 4.14213 11.093C3.25178 11.093 2.40132 10.824 1.68264 10.3151C1.60769 10.262 1.51349 10.2418 1.42279 10.2594C1.33198 10.2769 1.25279 10.3306 1.2042 10.4075L0.0495062 12.236C-0.0418068 12.3807 -0.00352411 12.5694 0.137334 12.6692C1.36683 13.5398 2.82152 14 4.3441 14C8.29859 14 11.5158 10.8598 11.5158 7C11.5158 3.14019 8.29859 0 4.3441 0Z" transform="translate(3.48419)" fill="url(#paint0_linear)"/>
<path d="M4.56572 5.42214C4.62364 5.31655 4.61728 5.18848 4.54925 5.0889L3.76829 3.94549H8.49384C9.14278 3.94549 9.67071 3.4302 9.67071 2.7968C9.67071 2.16339 9.14278 1.64811 8.49384 1.64811H3.76829L4.54925 0.50469C4.61733 0.405113 4.62364 0.277042 4.56572 0.171451C4.50784 0.0659083 4.39516 -3.00878e-08 4.27248 -3.00878e-08H2.02117C1.91001 -3.00878e-08 1.80612 0.0542253 1.74446 0.144584L0.0558712 2.61672C-0.0186237 2.72576 -0.0186237 2.86778 0.0558712 2.97687L1.74441 5.44901C1.80607 5.53932 1.90996 5.59359 2.02112 5.59359H4.27248C4.39521 5.59359 4.50789 5.52768 4.56572 5.42214Z" transform="translate(0 4.2032)" fill="url(#paint1_linear)"/>
<defs>
<linearGradient id="paint0_linear" x2="1" gradientUnits="userSpaceOnUse" gradientTransform="translate(11.5158) scale(11.5158 14) rotate(90)">
<stop stop-color="#67C5D6"/>
<stop offset="1" stop-color="#66B3F1"/>
</linearGradient>
<linearGradient id="paint1_linear" x2="1" gradientUnits="userSpaceOnUse" gradientTransform="translate(9.67071) scale(9.67071 5.59359) rotate(90)">
<stop stop-color="#67C5D6"/>
<stop offset="1" stop-color="#66B3F1"/>
</linearGradient>
</defs>
</svg>
