<?xml-stylesheet type="text/css" href="../../style.css"?>
<svg width="15" height="10">
<g id="Vector">
<path class="fa" d="M 14.9884 4.88993C 14.9612 4.76193 14.488 3.57138 13.3499 2.39493C 12.2929 1.30237 10.4199 2.11428e-08 7.50003 2.11428e-08C 4.58004 2.11428e-08 2.70711 1.30244 1.65008 2.39503C 1.05311 3.01211 0.648759 3.62916 0.414723 4.03819C 0.307378 4.22581 0.211765 4.41054 0.130636 4.58721C 0.0195172 4.82896 0 4.89069 0 4.99998C 0 5.10927 0.0195172 5.17097 0.130602 5.41276C 0.211765 5.58942 0.307344 5.77419 0.414689 5.96181C 0.648725 6.3708 1.05308 6.98789 1.65005 7.60497C 2.70707 8.69756 4.58001 10 7.5 10C 10.42 10 12.2929 8.69756 13.3499 7.60497C 13.9469 6.98792 14.3512 6.37084 14.5853 5.96181C 14.6926 5.77419 14.7883 5.58942 14.8694 5.41276C 14.9804 5.171 15 5.10927 15 4.99998C 15 4.96295 14.9961 4.92606 14.9884 4.88993ZM 7.5 7.73421C 6.01771 7.73421 4.81608 6.51002 4.81608 4.99991C 4.81608 3.4898 6.01771 2.26562 7.5 2.26562C 8.98228 2.26562 10.1839 3.4898 10.1839 4.99991C 10.1839 6.51002 8.98228 7.73421 7.5 7.73421Z" transform="translate(15 0) scale(-1 1)" fill="#BDBDBD"/>
</g>
</svg>

