
<?xml-stylesheet type="text/css" href="../../style.css"?>
<svg width="15" height="15" viewBox="0 0 15 15" version="1.1" xmlns="http://www.w3.org/2000/svg" xmlns:xlink="http://www.w3.org/1999/xlink">
<g id="Canvas" fill="none">
<g id="Group">
<g id="Group_2">
<g id="Vector">
<path class="fa" d="M 7.5 0C 3.3645 0 0 3.3645 0 7.5C 0 11.6355 3.3645 15 7.5 15C 11.6355 15 15 11.6355 15 7.5C 15 3.3645 11.6355 0 7.5 0ZM 7.5 13.4041C 4.24449 13.4041 1.59572 10.7557 1.59572 7.5C 1.59572 4.24434 4.24449 1.59587 7.5 1.59587C 10.7555 1.59587 13.4043 4.24434 13.4043 7.5C 13.4043 10.7557 10.7555 13.4041 7.5 13.4041Z" fill="#BDBDBD"/>
</g>
<g id="Vector_2">
<path d="M 4.6056 4.67013L 1.23508 4.67013L 1.23508 0.617538C 1.23508 0.276503 0.958574 -1.17786e-08 0.617538 -1.17786e-08C 0.276503 -1.17786e-08 2.92109e-07 0.276503 2.92109e-07 0.617538L 2.92109e-07 5.28767C 2.92109e-07 5.62871 0.276503 5.90521 0.617538 5.90521L 4.6056 5.90521C 4.94663 5.90521 5.22314 5.62871 5.22314 5.28767C 5.22314 4.94663 4.94663 4.67013 4.6056 4.67013Z" transform="translate(6.8031 2.59827)" fill="#BDBDBD"/>
</g>
</g>
</g>
</g>
</svg>

