<?xml-stylesheet type="text/css" href="../../style.css"?>
<svg width="15" height="14" viewBox="0 0 15 14" version="1.1" xmlns="http://www.w3.org/2000/svg" xmlns:xlink="http://www.w3.org/1999/xlink">
<g id="Canvas" fill="none">
<g id="like">
<g id="Group">
<g id="Group_2">
<g id="Vector">
<path class="fa" d="M 9.375 4.6875L 5.625 4.6875L 5.625 1.875C 5.625 0.840937 4.78406 0 3.75 0L 2.34375 0C 2.085 0 1.875 0.21 1.875 0.46875L 1.875 2.68781L 0.061875 5.86125C 0.020625 5.9325 0 6.01219 0 6.09375L 0 12.6562C 0 12.915 0.21 13.125 0.46875 13.125L 7.99219 13.125C 8.73281 13.125 9.40594 12.6872 9.705 12.0113L 11.2088 8.62781C 11.2359 8.56781 11.25 8.50313 11.25 8.4375L 11.25 6.5625C 11.25 5.52844 10.4091 4.6875 9.375 4.6875Z" transform="translate(3.75 0)" fill="#BDBDBD"/>
</g>
</g>
</g>
<g id="Group_3">
<g id="Group_4">
<g id="Vector_2">
<path d="M 0.46875 0C 0.21 0 0 0.21 0 0.46875L 0 7.03125C 0 7.29 0.21 7.5 0.46875 7.5L 2.8125 7.5L 2.8125 0L 0.46875 0Z" transform="translate(0 5.625)" fill="#BDBDBD"/>
</g>
</g>
</g>
</g>
</g>
</svg>

