<?xml-stylesheet type="text/css" href="../../style.css"?>
<svg width="15" height="15" viewBox="0 0 15 15" version="1.1" xmlns="http://www.w3.org/2000/svg" xmlns:xlink="http://www.w3.org/1999/xlink">
<g id="Canvas" fill="none">
<g id="play-button (3)">
<g id="Vector">
<path class="fa" d="M 7.5 0C 3.3645 0 0 3.3645 0 7.5C 0 11.6355 3.3645 15 7.5 15C 11.6355 15 15 11.6355 15 7.5C 15 3.3645 11.6355 0 7.5 0ZM 11.3907 7.7065L 5.89075 11.4565C 5.8485 11.4853 5.79925 11.5 5.75 11.5C 5.71 11.5 5.66975 11.4905 5.63325 11.471C 5.55125 11.4277 5.5 11.3427 5.5 11.25L 5.5 3.75C 5.5 3.65725 5.55125 3.57225 5.63325 3.529C 5.71525 3.4855 5.81425 3.4915 5.891 3.5435L 11.391 7.2935C 11.459 7.34 11.5 7.41725 11.5 7.5C 11.5 7.58275 11.459 7.66 11.3907 7.7065Z" fill="url(#paint0_linear)"/>
</g>
</g>
</g>
<defs>

<linearGradient id="paint0_linear" x2="1" gradientUnits="userSpaceOnUse" gradientTransform="matrix(0 15 -15 0 15 0)">
<stop stop-color="#67C5D6"/>
<stop offset="1" stop-color="#66B3F1"/>
</linearGradient>

</defs>
</svg>

