<?xml-stylesheet type="text/css" href="../../style.css"?>
<svg class="head__icon" width="88" height="88" viewBox="0 0 88 88" version="1.1" xmlns="http://www.w3.org/2000/svg" xmlns:xlink="http://www.w3.org/1999/xlink">
<g id="Canvas" >
<g id="Vector">
<path class="fa" d="M 8.56083 17.1217C 10.6488 17.1217 12.547 16.3814 14.0276 15.1286L 20.6713 21.7722C 20.8231 21.9241 21.0129 22 21.2217 22C 21.4305 22 21.6204 21.9241 21.7722 21.7722C 22.0759 21.4685 22.0759 20.975 21.7722 20.6713L 15.1286 14.0276C 16.3624 12.547 17.1217 10.6299 17.1217 8.56083C 17.1217 3.83434 13.2873 0 8.56083 0C 3.85332 0 0 3.85332 0 8.56083C 0 13.2873 3.85332 17.1217 8.56083 17.1217ZM 8.56083 1.55651C 12.4331 1.55651 15.5651 4.70751 15.5651 8.56083C 15.5651 12.4331 12.4331 15.5651 8.56083 15.5651C 4.68852 15.5651 1.55651 12.4141 1.55651 8.56083C 1.55651 4.70751 4.70751 1.55651 8.56083 1.55651Z" transform="scale(4)" fill="#4C3299"/>
</g>
</g>
</svg>

