
<?xml-stylesheet type="text/css" href="../../style.css"?>
<svg width="15" height="15" viewBox="0 0 15 15" version="1.1" xmlns="http://www.w3.org/2000/svg" xmlns:xlink="http://www.w3.org/1999/xlink">
<g id="Canvas" fill="none">
<g id="Vector">
<path class="fa fa-setting" fill-rule="evenodd" clip-rule="evenodd" d="M 14.9531 6.66721C 14.9293 6.45636 14.6835 6.29791 14.4709 6.29791C 13.7836 6.29791 13.1737 5.89434 12.9179 5.27021C 12.6566 4.63095 12.8251 3.88543 13.3373 3.41556C 13.4985 3.26816 13.5181 3.02142 13.3829 2.85003C 13.0311 2.40332 12.6313 1.9998 12.1947 1.65009C 12.0238 1.51291 11.7729 1.532 11.6247 1.69614C 11.1776 2.19124 10.3746 2.37524 9.7541 2.11634C 9.10835 1.84471 8.70114 1.19038 8.74099 0.487999C 8.75411 0.267379 8.59287 0.075557 8.37291 0.0499398C 7.81267 -0.0148567 7.24751 -0.0168658 6.68559 0.0454749C 6.46815 0.0694736 6.30691 0.256775 6.31422 0.474605C 6.33867 1.17006 5.92655 1.81295 5.28722 2.07481C 4.67412 2.32524 3.87673 2.14279 3.43057 1.6521C 3.28311 1.49047 3.03637 1.47061 2.86458 1.6045C 2.41506 1.95717 2.00624 2.36101 1.65122 2.80404C 1.51275 2.97627 1.53312 3.22591 1.69598 3.37409C 2.21799 3.84681 2.38654 4.59881 2.11535 5.24543C 1.85644 5.86192 1.21627 6.25923 0.483402 6.25923C 0.245586 6.25159 0.0761954 6.41121 0.0501869 6.62742C -0.0157832 7.19089 -0.0165645 7.76501 0.0469498 8.33306C 0.0705026 8.5448 0.323834 8.70185 0.538767 8.70185C 1.19188 8.68517 1.81893 9.08952 2.08198 9.72961C 2.34418 10.3689 2.17563 11.1139 1.6626 11.5842C 1.50214 11.7316 1.48177 11.978 1.617 12.1493C 1.9655 12.5932 2.36539 12.9971 2.80352 13.3497C 2.97536 13.4882 3.2254 13.4687 3.37436 13.3045C 3.8231 12.8082 4.62607 12.6245 5.24413 12.8839C 5.8915 13.1547 6.2987 13.809 6.25885 14.5118C 6.24585 14.7325 6.40787 14.9247 6.62694 14.9499C 6.91353 14.9833 7.20186 15 7.49096 15C 7.76539 15 8.03988 14.9849 8.31431 14.9544C 8.53181 14.9304 8.69294 14.7431 8.68563 14.5249C 8.66045 13.8298 9.0733 13.1869 9.71179 12.9255C 10.329 12.6734 11.1231 12.8579 11.5693 13.3481C 11.7176 13.5094 11.9626 13.5289 12.1353 13.3954C 12.584 13.0436 12.992 12.6401 13.3487 12.1958C 13.4871 12.024 13.4676 11.774 13.3039 11.6258C 12.7819 11.1531 12.6125 10.401 12.8837 9.75484C 13.1386 9.14655 13.755 8.73813 14.418 8.73813L 14.5108 8.74053C 14.7258 8.758 14.9237 8.59235 14.9497 8.37285C 15.0158 7.80888 15.0166 7.23526 14.9531 6.66721ZM 7.51189 10.0175C 6.13233 10.0175 5.01017 8.89541 5.01017 7.51587C 5.01017 6.1364 6.13233 5.01421 7.51189 5.01421C 8.89141 5.01421 10.0136 6.1364 10.0136 7.51587C 10.0136 8.89541 8.89141 10.0175 7.51189 10.0175Z" fill="url(#paint0_linear)"/>
</g>
</g>
<defs>

<linearGradient id="paint0_linear" x2="1" gradientUnits="userSpaceOnUse" gradientTransform="matrix(0 15 -15 0 15 0)">
<stop stop-color="#67C5D6"/>
<stop offset="1" stop-color="#66B3F1"/>
</linearGradient>

</defs>
</svg>

