<svg width="20" height="22" viewBox="0 0 20 22" fill="none" xmlns="http://www.w3.org/2000/svg">
<path d="M19.7906 20.2946C17.8294 19.4256 16.6978 18.7045 14.6412 18.0234C14.4876 17.9728 14.3043 17.8738 14.2434 17.7545C14.0763 17.4355 13.959 17.0963 13.84 16.7593C13.7643 16.5454 13.6973 16.3435 13.4243 16.2401C13.3512 16.2128 13.2843 16.0887 13.286 16.0095C13.3 15.2299 13.0243 14.6627 13.3648 14.3565C13.9848 13.7964 13.8439 13.1095 14.1542 12.7694C14.464 12.4298 15.2315 10.0182 15.0845 9.70797C14.9374 9.39909 14.4189 9.54385 14.5397 9.39381C15.0166 8.80246 15.1637 7.60789 15.1391 6.62847C15.224 6.80578 15.2709 6.9985 15.2709 7.20926V7.41209L18.3063 5.42861L10.0002 0L1.69547 5.42773L2.44592 5.91788V7.0161C2.30195 7.05306 2.193 7.17802 2.193 7.33421C2.193 7.45521 2.26126 7.55817 2.35884 7.61669L1.69504 11.42H3.35739L2.69271 7.61669C2.78985 7.55861 2.85768 7.45565 2.85768 7.33421C2.85768 7.17802 2.74872 7.05306 2.6052 7.0161V6.0226L4.73007 7.41121V7.27789C4.74582 7.47633 4.7747 7.68093 4.82284 7.89344C4.98693 8.61679 5.30329 8.57191 5.55971 9.39205C5.56365 9.40437 5.56015 9.42065 5.56015 9.43517V9.47917C5.54002 9.57245 5.46564 9.67761 5.40306 9.69477C5.09807 9.77969 5.09063 9.94864 5.13176 10.1673C5.16021 10.3178 5.39344 11.4363 5.52821 11.8366C5.62973 12.1345 5.8262 12.4152 5.88046 12.7188C5.98985 13.3243 6.2489 13.8509 6.72192 14.3072C6.80025 14.3838 6.85888 14.51 6.85013 14.609C6.81337 15.0759 6.75868 15.5418 6.6856 16.0042C6.67116 16.0958 6.56045 16.2291 6.47075 16.2458C6.11237 16.3105 6.0568 16.5485 5.97147 16.7901C5.85814 17.1082 5.73737 17.4259 5.59516 17.7338C5.55009 17.8302 5.43938 17.9296 5.32999 17.9719C4.69244 18.2126 4.04351 18.4326 3.40115 18.6649C2.71809 18.9143 0.908272 20.0302 0.236154 20.3412C-0.158978 20.5251 0.0611233 22 0.0611233 22C7.87844 22 12.0875 22 19.9039 22C19.9039 21.9996 20.1827 20.4688 19.7906 20.2946Z" fill="#CFCCE0"/>
</svg>
