<?xml-stylesheet type="text/css" href="../../style.css"?>
<svg width="16" height="14" viewBox="0 0 16 14" version="1.1" xmlns="http://www.w3.org/2000/svg" xmlns:xlink="http://www.w3.org/1999/xlink">
<g id="Canvas" fill="none">
<g id="star (1)">
<g id="Vector">
<path class="fa" d="M 15.1955 6.34456C 15.5012 6.06425 15.6091 5.65284 15.4772 5.27041C 15.3451 4.88797 15.0008 4.61497 14.5778 4.55704L 10.8169 4.04293C 10.6567 4.02098 10.5183 3.92647 10.4468 3.78983L 8.76542 0.58404C 8.57664 0.223843 8.19346 1.47897e-08 7.76643 1.47897e-08C 7.33971 1.47897e-08 6.95653 0.223843 6.76774 0.58404L 5.08605 3.79012C 5.01452 3.92676 4.8758 4.02128 4.71563 4.04322L 0.954768 4.55733C 0.532091 4.61497 0.187481 4.88827 0.0552971 5.2707C -0.0765756 5.65314 0.0313485 6.06454 0.337082 6.34486L 3.0582 8.8402C 3.17421 8.9467 3.22739 9.10003 3.20003 9.24984L 2.55808 12.7734C 2.50116 13.0836 2.58763 13.3852 2.80099 13.6231C 3.13253 13.9939 3.71134 14.1068 4.17414 13.878L 7.53752 12.2142C 7.6781 12.1449 7.85507 12.1455 7.99534 12.2142L 11.359 13.878C 11.5226 13.959 11.6971 14 11.8772 14C 12.2059 14 12.5176 13.8625 12.7319 13.6231C 12.9455 13.3852 13.0317 13.083 12.9748 12.7734L 12.3325 9.24984C 12.3052 9.09974 12.3583 8.9467 12.4743 8.8402L 15.1955 6.34456Z" fill="#8257FF"/>
</g>
</g>
</g>
</svg>

