<svg width="10" height="14" viewBox="0 0 10 14" fill="none" xmlns="http://www.w3.org/2000/svg">
<path d="M8.33331 1.16668H6.66665L6.41832 0.645176C6.22998 0.249676 5.84498 1.00136e-08 5.42444 1.00136e-08H4.01999C3.59887 1.00136e-08 3.21444 0.249676 3.02611 0.645176L2.77778 1.16668H1.11112C0.497212 1.16668 -4.76836e-09 1.68878 -4.76836e-09 2.33335V2.91668H9.44443V2.33335C9.4444 1.68878 8.94719 1.16668 8.33331 1.16668Z" transform="translate(0.277832 0.291656)" fill="white"/>
<path d="M8.6111 1.16668H7.1161L6.94389 0.806176C6.7072 0.308574 6.2311 0 5.70165 0H4.29778C3.76832 0 3.29278 0.308574 3.05556 0.806176L2.8839 1.16668H1.3889C0.622785 1.16668 0 1.82118 0 2.625V3.20832C0 3.36932 0.124453 3.5 0.277786 3.5H9.72221C9.87555 3.5 10 3.36932 10 3.20832V2.625C9.99997 1.82118 9.37719 1.16668 8.6111 1.16668ZM9.44443 2.91668H0.555545V2.625C0.555545 2.14257 0.929425 1.75 1.38888 1.75H3.05554C3.16054 1.75 3.25666 1.68757 3.30387 1.589L3.55275 1.06693C3.69442 0.768852 3.97996 0.583352 4.2983 0.583352H5.70217C6.01996 0.583352 6.3055 0.768852 6.44772 1.06693L6.69605 1.589C6.74326 1.68757 6.83938 1.75 6.94438 1.75H8.61104C9.0705 1.75 9.44438 2.14257 9.44438 2.625V2.91668H9.44443Z" fill="white"/>
<path d="M8.6111 -2.03609e-07H0.277786C0.124453 -2.03609e-07 4.76836e-09 0.130676 4.76836e-09 0.291676V7.875C4.76836e-09 9.00085 0.872237 9.91668 1.94445 9.91668H6.94444C8.01665 9.91668 8.88888 9.00085 8.88888 7.875V0.291676C8.88888 0.130676 8.76443 -2.03609e-07 8.6111 -2.03609e-07ZM2.22223 7.875C2.22223 8.036 2.09778 8.16668 1.94445 8.16668C1.79112 8.16668 1.66666 8.036 1.66666 7.875V0.875C1.66666 0.714 1.79112 0.583324 1.94445 0.583324C2.09778 0.583324 2.22223 0.714 2.22223 0.875V7.875ZM3.8889 7.875C3.8889 8.036 3.76444 8.16668 3.61111 8.16668C3.45778 8.16668 3.33332 8.036 3.33332 7.875V0.875C3.33332 0.714 3.45778 0.583324 3.61111 0.583324C3.76444 0.583324 3.8889 0.714 3.8889 0.875V7.875ZM5.55556 7.875C5.55556 8.036 5.43111 8.16668 5.27777 8.16668C5.12444 8.16668 4.99999 8.036 4.99999 7.875V0.875C4.99999 0.714 5.12444 0.583324 5.27777 0.583324C5.43111 0.583324 5.55556 0.714 5.55556 0.875V7.875ZM7.22222 7.875C7.22222 8.036 7.09777 8.16668 6.94444 8.16668C6.7911 8.16668 6.66665 8.036 6.66665 7.875V0.875C6.66665 0.714 6.7911 0.583324 6.94444 0.583324C7.09777 0.583324 7.22222 0.714 7.22222 0.875V7.875Z" transform="translate(0.555542 4.08334)" fill="white"/>
</svg>
