<svg width="11" height="11" viewBox="0 0 11 11" fill="none" xmlns="http://www.w3.org/2000/svg">
<path d="M4.28041 8.56083C5.32442 8.56083 6.27351 8.19068 7.0138 7.56428L10.3356 10.8861C10.4116 10.962 10.5065 11 10.6109 11C10.7153 11 10.8102 10.962 10.8861 10.8861C11.038 10.7343 11.038 10.4875 10.8861 10.3356L7.56428 7.0138C8.18119 6.27351 8.56083 5.31493 8.56083 4.28041C8.56083 1.91717 6.64366 0 4.28041 0C1.92666 0 0 1.92666 0 4.28041C0 6.64366 1.92666 8.56083 4.28041 8.56083ZM4.28041 0.778257C6.21657 0.778257 7.78257 2.35375 7.78257 4.28041C7.78257 6.21657 6.21657 7.78257 4.28041 7.78257C2.34426 7.78257 0.778257 6.20707 0.778257 4.28041C0.778257 2.35375 2.35375 0.778257 4.28041 0.778257Z" fill="#828282"/>
</svg>
